<mxfile host="app.diagrams.net" modified="2024-03-25T23:25:15.641Z" agent="Mozilla/5.0 (Windows NT 10.0; Win64; x64) AppleWebKit/537.36 (KHTML, like Gecko) Chrome/123.0.0.0 Safari/537.36" version="24.0.7" etag="XI6IpDOV5q7suuKvtblu" type="github">
  <diagram name="PÃ¡gina-1" id="tGomcV0iVWe5njyzaC6b">
    <mxGraphModel>
      <root>
        <mxCell id="0" />
        <mxCell id="1" parent="0" />
      </root>
    </mxGraphModel>
  </diagram>
</mxfile>
